Coordinates
version=1
nRows=6
nColumns=63
inDegrees=yes

Units are S.I. units (second, meters, Newtons, ...)
If the header above contains a line with 'inDegrees', this indicates whether rotational values are in degrees (yes) or radians (no).

endheader
time	pelvis_tilt	pelvis_list	pelvis_rotation	pelvis_tx	pelvis_ty	pelvis_tz	hip_flexion_r	hip_adduction_r	hip_rotation_r	knee_angle_r	knee_angle_r_beta	ankle_angle_r	subtalar_angle_r	mtp_angle_r	hip_flexion_l	hip_adduction_l	hip_rotation_l	knee_angle_l	knee_angle_l_beta	ankle_angle_l	subtalar_angle_l	mtp_angle_l	L5_S1_Flex_Ext	L5_S1_Lat_Bending	L5_S1_axial_rotation	L4_L5_Flex_Ext	L4_L5_Lat_Bending	L4_L5_axial_rotation	L3_L4_Flex_Ext	L3_L4_Lat_Bending	L3_L4_axial_rotation	L2_L3_Flex_Ext	L2_L3_Lat_Bending	L2_L3_axial_rotation	L1_L2_Flex_Ext	L1_L2_Lat_Bending	L1_L2_axial_rotation	L1_T12_Flex_Ext	L1_T12_Lat_Bending	L1_T12_axial_rotation	Abs_r3	Abs_r2	Abs_r1	Abs_t1	Abs_t2	neck_flexion	neck_bending	neck_rotation	arm_flex_r	arm_add_r	arm_rot_r	elbow_flex_r	pro_sup_r	wrist_flex_r	wrist_dev_r	arm_flex_l	arm_add_l	arm_rot_l	elbow_flex_l	pro_sup_l	wrist_flex_l	wrist_dev_l
13.170732	-4.924041	-2.938906	80.591185	0.260355	0.369928	0.905412	-0.885381	-0.097887	3.291443	10.627648	0.185487	31.074802	-10.118318	0.000000	0.041965	-1.345541	-5.251109	8.550186	0.149229	34.476000	15.067917	0.000000	-0.248083	-0.230383	1.525725	-0.460715	-0.306410	1.621083	-0.407576	-0.560154	1.621083	-0.283534	-0.560154	1.335009	-0.230370	-0.469798	1.239651	-0.141755	-0.356864	1.144294	-1.772033	-2.606142	8.485624	0.000000	0.000000	-1.982644	2.992258	1.535519	-5.150922	-7.248100	-8.621356	123.271878	80.438881	-7.001498	12.394423	1.932072	-13.749556	-14.836735	127.934430	86.112221	15.452434	4.402532
13.195122	-4.480632	-3.019208	80.862874	0.258700	0.370287	0.904781	-0.755449	0.314506	3.036237	10.791272	0.188343	31.089382	-10.150320	0.000000	0.002233	-1.717587	-4.815741	8.458171	0.147623	34.497179	14.978357	0.000000	-0.248992	-0.146024	1.498429	-0.462403	-0.194212	1.592080	-0.409069	-0.355043	1.592080	-0.284573	-0.355043	1.311125	-0.231214	-0.297773	1.217473	-0.142274	-0.226192	1.123822	-1.778525	-1.651856	8.333811	0.000000	0.000000	-2.062976	2.321652	2.001773	-7.283654	-7.354617	-10.907348	123.103529	80.863066	-8.281390	10.525160	1.277336	-11.552006	-19.860718	127.628990	86.521579	17.815658	4.829269
13.219512	-4.045832	-3.096958	81.017734	0.257203	0.370688	0.904318	-0.600920	0.709770	2.813221	10.965339	0.191381	31.107047	-10.055644	0.000000	-0.039614	-2.079643	-4.452964	8.352937	0.145786	34.538986	14.892319	0.000000	-0.249624	-0.065392	1.472169	-0.463577	-0.086972	1.564179	-0.410108	-0.158995	1.564179	-0.285296	-0.158995	1.288148	-0.231801	-0.133348	1.196137	-0.142635	-0.101293	1.104127	-1.783042	-0.739732	8.187762	0.000000	0.000000	-2.256262	1.699538	2.500148	-9.173404	-7.409645	-13.568410	122.546529	81.407596	-9.553255	8.066417	1.020416	-9.335434	-25.133425	127.426890	86.660348	19.452857	6.151432
13.243902	-3.634726	-3.170614	81.094425	0.255858	0.371084	0.903969	-0.446265	1.075397	2.606076	11.134693	0.194337	31.114646	-9.887577	0.000000	-0.077550	-2.421489	-4.162534	8.252578	0.144035	34.591328	14.832560	0.000000	-0.251082	0.009320	1.435789	-0.466284	0.012395	1.525525	-0.412502	0.022660	1.525525	-0.286961	0.022660	1.256315	-0.233155	0.019005	1.166578	-0.143468	0.014436	1.076841	-1.793452	0.105427	7.985425	0.000000	0.000000	-2.525759	1.120121	3.066192	-10.705149	-7.423511	-16.536358	121.681793	81.876276	-10.628278	5.218047	1.078589	-7.244317	-30.558094	127.366217	86.563865	20.250562	8.196109
13.268293	-3.257683	-3.247585	81.107672	0.254698	0.371440	0.903705	-0.298331	1.409920	2.459773	11.283913	0.196941	31.097332	-9.723123	0.000000	-0.101654	-2.738823	-3.954168	8.168180	0.142562	34.658100	14.805990	0.000000	-0.252268	0.075354	1.389214	-0.468488	0.100221	1.476039	-0.414452	0.183216	1.476039	-0.288317	0.183216	1.215562	-0.234256	0.153662	1.128736	-0.144146	0.116724	1.041910	-1.801928	0.852423	7.726389	0.000000	0.000000	-2.824107	0.643431	3.663639	-11.835055	-7.384951	-19.741623	120.585630	82.250490	-11.443907	2.185912	1.385871	-5.329339	-36.042564	127.413451	86.610683	20.282737	10.634188
13.292683	-2.954250	-3.348197	81.033698	0.253785	0.371695	0.903541	-0.132002	1.678684	2.393382	11.399457	0.198958	31.091430	-9.525391	0.000000	-0.093428	-2.998815	-3.882945	8.087938	0.141161	34.725007	14.843936	0.000000	-0.250384	0.126606	1.348630	-0.464988	0.168386	1.432920	-0.411356	0.307829	1.432920	-0.286164	0.307829	1.180052	-0.232507	0.258175	1.095762	-0.143069	0.196112	1.011473	-1.788468	1.432190	7.500678	0.000000	0.000000	-3.059393	0.285651	4.144872	-12.624180	-7.321442	-23.097497	119.391013	82.788743	-12.277894	-0.748849	1.936859	-3.611439	-41.407152	127.578324	86.665963	19.380921	13.471656
